<svg version="1" xmlns="http://www.w3.org/2000/svg" width="800" height="800" viewBox="0 0 600.000000 600.000000"><path d="M0 300v300h600V0H0v300zM92.7 3.2c1.5.7 4.2 2.3 6 3.6 4.9 3.6 30.9 32.7 62.7 70.2l15.7 18.4 26.2.1c29.1.1 32.2.6 45.4 7 7.8 3.9 22.2 14.6 29.3 21.9 4.4 4.6 4.4 4.6 2.5 6.5-1.1 1-20.7 16-43.5 33.3-22.8 17.3-51.1 38.7-62.8 47.6-11.7 8.9-21.6 16.2-22.1 16.2-1.2 0-15.5-21.1-21.6-32-8.3-14.5-15-32-17.5-45-.8-4.2-3.2-8.2-13.8-22.8-26.6-36.6-53.4-75-57.4-82.2-3.6-6.3-4.2-9.7-2.4-12.5C41.2 30.8 72.8 6.4 78 3.8c4-2.1 10.7-2.3 14.7-.6zM26.5 45.3c-2.8 6.9-3.7 5.4 38.3 66.7 7.7 11.3 17.7 25.8 22.1 32.3L95 156v12.8c0 28.5 6.9 51.1 22.8 75 2.3 3.5 4.2 6.7 4.2 7.1 0 .9-38.6 30.1-39.8 30.1-1.1 0-8.1-14.9-12-25.6-5.4-14.8-6.5-21.3-5.9-35.2.6-13.3 2.3-21.9 7.8-39.4l3.1-9.7-2.8-4.6c-1.6-2.5-10.3-15.9-19.3-29.7C10.2 71.1 9 69.1 9 64.3c0-6.1 2.7-10.2 11.4-17.3 3.9-3.2 7.2-5.8 7.3-5.6.2.2-.3 1.9-1.2 3.9zm271.9 110c5.5 8.9 16.8 27.2 25.1 40.7 8.3 13.5 30 48.6 48.2 78 18.2 29.4 40.1 65 48.8 79 8.7 14 19.9 32.2 25 40.5 5.1 8.2 19.2 31.2 31.4 50.9s22.9 37.3 23.8 38.9c1.1 2.2 1.4 4.6 1 8.2-1.1 10.4-.5 9.9-39.8 39.8-37.9 28.8-39.4 29.7-43.7 25.9-1.9-1.6-14.7-17.3-49.2-60.1-9.1-11.2-22.8-28.1-30.5-37.6-20.9-25.7-81.1-100.3-114-141.1-7.1-8.9-24.8-30.8-39.2-48.7-14.5-17.9-26.3-33-26.2-33.4 0-.4 3.5-3.3 7.7-6.4 4.2-3.1 18.5-13.8 31.7-23.9 13.2-10 31.8-24.1 41.4-31.4 9.5-7.2 23.9-18.1 32-24.3 8-6.2 15.1-11.2 15.6-11.2.6 0 5.5 7.3 10.9 16.2zM135.6 268.6c3.8 4.4 22.2 26.2 40.9 48.4s39.4 46.7 46 54.5c6.6 7.7 20 23.5 29.7 35 33 39.2 108.9 128.9 124 146.6 8.2 9.7 16.1 18.2 17.5 19 1.4.7 4.5 1.4 6.9 1.4 2.4 0 4.4.2 4.4.5s-5 4.3-11.1 8.9c-12.1 9.1-15.9 10.6-22.7 8.9-6.1-1.5-2.1 2.6-67.7-68.8-15.4-16.8-31.4-34.1-35.5-38.5-4.2-4.4-36.6-39.5-72-78-35.5-38.4-74.1-80.3-85.8-92.9-11.7-12.6-21.1-23.4-21-23.8.5-1.3 38.1-29.9 38.9-29.6.3.2 3.7 3.9 7.5 8.4z"/></svg>